<svg height="512" viewBox="0 0 512 512" width="512" xmlns="http://www.w3.org/2000/svg"><path d="m24 208.634h104v39.366h-104z" fill="#c6c6c6"/><path d="m384 208h104v40h-104z" fill="#c6c6c6"/><path d="m304 56a75.893 75.893 0 0 1 -48 0v-32a75.893 75.893 0 0 0 48 0z" fill="#69b9e7"/><path d="m248 24h16v80h-16z" fill="#787d82"/><path d="m256 88-136 104v8h272v-8z" fill="#cdcdcd"/><path d="m168 192 88-64 88 64v8h-176z" fill="#a8a8a8"/><path d="m333 200-77-56-77 56z" fill="#b9b9b9"/><path d="m24 240h464v184h-464z" fill="#cdcdcd"/><path d="m120 192h272v232h-272z" fill="#d9d9d9"/><path d="m192 272h160v144h-160z" fill="#afafaf"/><path d="m192 368h96v8h-96z" fill="#989898"/><path d="m192 272h152v8h-152z" fill="#989898"/><path d="m232 272h48v144h-48z" fill="#e4e4e2"/><path d="m160 272h32v144h-32z" fill="#e4e4e2"/><g fill="#cbcbcb"><path d="m160 272h32v8h-32z"/><path d="m232 272h48v8h-48z"/><path d="m160 368h32v8h-32z"/><path d="m232 368h48v8h-48z"/></g><path d="m160 240h192v32h-192z" fill="#e4e4e2"/><path d="m160 336h192v32h-192z" fill="#eaeae8"/><path d="m56 384h32v32h-32z" fill="#afafaf"/><path d="m56 384h32v8h-32z" fill="#989898"/><path d="m24 416h464v32h-464z" fill="#c6c6c6"/><path d="m24 440h464v8h-464z" fill="#afafaf"/><path d="m120 192h272v48h-272z" fill="#cdcdcd"/><circle cx="440" cy="296" fill="none" r="16" stroke="#000" stroke-linejoin="round" stroke-width="2"/><path d="m88 384h-32v-16a16 16 0 0 1 16-16 16 16 0 0 1 16 16z" fill="#e4e4e2"/><circle cx="72" cy="288" fill="#eaeae8" r="16"/><path d="m112 240h8v176h-8z" fill="#c6c6c6"/><path d="m112 208.634h8v31.366h-8z" fill="#afafaf"/><path d="m392 240h8v176h-8z" fill="#c6c6c6"/><path d="m392 208h8v32h-8z" fill="#afafaf"/><path d="m454.224 440v-72a64 64 0 0 0 -64-64l8-32h-64l8 32a64 64 0 0 0 -64 64v72l-3.871 7.742a22.286 22.286 0 0 0 -1.209 17.017 22.29 22.29 0 0 0 21.146 15.241h44.341a51.586 51.586 0 0 0 55.186 0h44.341a22.29 22.29 0 0 0 21.142-15.241 22.286 22.286 0 0 0 -1.209-17.017z" fill="#97d9a9"/><path d="m398.227 376v-5.406a26.537 26.537 0 0 0 -24-26.331v-8.263h-16v8.262a26.52 26.52 0 0 0 -5.821 51.574l22.571 7.508a10.6 10.6 0 0 1 -3.352 20.656h-10.805a10.6 10.6 0 0 1 -10.593-10.594v-5.406h-16v5.406a26.536 26.536 0 0 0 24 26.332v8.262h16v-8.263a26.517 26.517 0 0 0 5.812-51.573l-22.57-7.508a10.6 10.6 0 0 1 3.351-20.656h10.805a10.61 10.61 0 0 1 10.6 10.594v5.406z" fill="#83bd93"/><path d="m366.227 320a84.73 84.73 0 0 1 -60.289-24.969l-9.368-9.375 11.313-11.312 9.367 9.375a68.831 68.831 0 0 0 48.977 20.281 69.723 69.723 0 0 0 48.973-20.281l9.375-9.375 11.313 11.312-9.375 9.375a85.838 85.838 0 0 1 -60.286 24.969z" fill="#83bd93"/><circle cx="440" cy="312" fill="#f8bb59" r="48"/><circle cx="423" cy="295" fill="#dc9315" r="9"/><circle cx="457" cy="329" fill="#dc9315" r="9"/><path d="m423.031 336.969a8 8 0 0 1 -5.656-13.657l33.937-33.937a8 8 0 0 1 11.313 11.313l-33.937 33.937a7.975 7.975 0 0 1 -5.657 2.344z" fill="#dc9315"/></svg>